<?xml version="1.0" encoding="UTF-8"?>
<svg width="336px" height="285px" viewBox="0 0 336 285" version="1.1" xmlns="http://www.w3.org/2000/svg" xmlns:xlink="http://www.w3.org/1999/xlink">
    <!-- Generator: Sketch 53.2 (72643) - https://sketchapp.com -->
    <title>Combined Shape</title>
    <desc>Created with Sketch.</desc>
    <defs>
        <path d="M51.8097554,0 L307,0 C318.59798,-2.13051432e-15 328,9.40202025 328,21 L328,256 C328,267.59798 318.59798,277 307,277 L21,277 C9.40202025,277 1.42034288e-15,267.59798 0,256 L0,51.7488818 L51.8097554,1.77635684e-15 Z" id="path-1"></path>
        <filter x="-1.2%" y="-0.4%" width="102.4%" height="102.9%" filterUnits="objectBoundingBox" id="filter-2">
            <feGaussianBlur stdDeviation="0" in="SourceGraphic"></feGaussianBlur>
        </filter>
        <filter x="-2.3%" y="-1.6%" width="104.6%" height="105.4%" filterUnits="objectBoundingBox" id="filter-3">
            <feOffset dx="0" dy="3" in="SourceAlpha" result="shadowOffsetOuter1"></feOffset>
            <feMorphology radius="2" operator="erode" in="SourceAlpha" result="shadowInner"></feMorphology>
            <feOffset dx="0" dy="3" in="shadowInner" result="shadowInner"></feOffset>
            <feComposite in="shadowOffsetOuter1" in2="shadowInner" operator="out" result="shadowOffsetOuter1"></feComposite>
            <feGaussianBlur stdDeviation="2" in="shadowOffsetOuter1" result="shadowBlurOuter1"></feGaussianBlur>
            <feColorMatrix values="0 0 0 0 0   0 0 0 0 0   0 0 0 0 0  0 0 0 0.5 0" type="matrix" in="shadowBlurOuter1"></feColorMatrix>
        </filter>
    </defs>
    <g id="Symbols" stroke="none" stroke-width="1" fill="none" fill-rule="evenodd">
        <g id="1" transform="translate(4.000000, 1.000000)">
            <g id="Combined-Shape" filter="url(#filter-2)">
                <use fill="black" fill-opacity="1" filter="url(#filter-3)" xlink:href="#path-1"></use>
                <path stroke="#03AD79" stroke-width="2" d="M52.2236247,1 L1,52.1634397 L1,256 C1,267.045695 9.954305,276 21,276 L307,276 C318.045695,276 327,267.045695 327,256 L327,21 C327,9.954305 318.045695,1 307,1 L52.2236247,1 Z" stroke-linejoin="square"></path>
            </g>
        </g>
    </g>
</svg>