<?xml version="1.0" encoding="UTF-8"?>
<svg width="52px" height="52px" viewBox="0 0 52 52" version="1.1" xmlns="http://www.w3.org/2000/svg" xmlns:xlink="http://www.w3.org/1999/xlink">
    <!-- Generator: Sketch 53.2 (72643) - https://sketchapp.com -->
    <title>noun_ruble_92314</title>
    <desc>Created with Sketch.</desc>
    <defs>
        <filter x="-26.1%" y="-26.7%" width="152.2%" height="153.3%" filterUnits="objectBoundingBox" id="filter-1">
            <feOffset dx="0" dy="2" in="SourceAlpha" result="shadowOffsetOuter1"></feOffset>
            <feGaussianBlur stdDeviation="2" in="shadowOffsetOuter1" result="shadowBlurOuter1"></feGaussianBlur>
            <feColorMatrix values="0 0 0 0 0   0 0 0 0 0   0 0 0 0 0  0 0 0 0.5 0" type="matrix" in="shadowBlurOuter1" result="shadowMatrixOuter1"></feColorMatrix>
            <feMerge>
                <feMergeNode in="shadowMatrixOuter1"></feMergeNode>
                <feMergeNode in="SourceGraphic"></feMergeNode>
            </feMerge>
        </filter>
    </defs>
    <g id="Symbols" stroke="none" stroke-width="1" fill="none" fill-rule="evenodd">
        <g id="voluta" transform="translate(4.000000, 2.000000)" fill="#0D8D66" fill-rule="nonzero">
            <g id="noun_ruble_92314" filter="url(#filter-1)">
                <g id="Group" transform="translate(0.413793, 0.000000)">
                    <path d="M21.7241379,0 C9.72565517,0 0,9.72613793 0,21.7241379 C0,33.7221379 9.72565517,43.4482759 21.7241379,43.4482759 C33.7221379,43.4482759 43.4482759,33.7221379 43.4482759,21.7241379 C43.4482759,9.72613793 33.7221379,0 21.7241379,0 Z M21.7241379,41.0344828 C11.0764138,41.0344828 2.4137931,32.3718621 2.4137931,21.7241379 C2.4137931,11.0764138 11.0764138,2.4137931 21.7241379,2.4137931 C32.3718621,2.4137931 41.0344828,11.0764138 41.0344828,21.7241379 C41.0344828,32.3718621 32.3718621,41.0344828 21.7241379,41.0344828 Z" id="Shape"></path>
                    <path d="M24.865931,11.6595862 L16.4022069,11.6595862 L16.4022069,22.2266897 L13.5056552,22.2266897 L13.5056552,24.6984138 L16.4022069,24.6984138 L16.4022069,27.0547586 L13.5056552,27.0547586 L13.5056552,29.526 L16.4022069,29.526 L16.4022069,33.7202069 L19.3373793,33.7202069 L19.3373793,29.5255172 L27.2642759,29.5255172 L27.2642759,27.0542759 L19.3373793,27.0542759 L19.3373793,24.697931 L24.865931,24.697931 C27.1102759,24.697931 28.7994483,24.1263448 29.9324828,22.9826897 C31.0655172,21.8395172 31.6322759,20.2386897 31.6322759,18.1782759 C31.6322759,16.1188276 31.0655172,14.5170345 29.9324828,13.3743448 C28.7994483,12.2311724 27.1102759,11.6595862 24.865931,11.6595862 Z M27.538,21.1911724 C26.7655862,21.8815172 25.5451724,22.2266897 23.8767586,22.2266897 L19.3373793,22.2266897 L19.3373793,14.1313103 L23.8767586,14.1313103 C25.5451724,14.1313103 26.7655862,14.4764828 27.538,15.1668276 C28.3108966,15.8571724 28.6966207,16.8613103 28.6966207,18.1787586 C28.6966207,19.4971724 28.3108966,20.5013103 27.538,21.1911724 Z" id="Shape"></path>
                </g>
            </g>
        </g>
    </g>
</svg>